<svg xmlns="http://www.w3.org/2000/svg" xmlns:xlink="http://www.w3.org/1999/xlink" viewBox="0 0 9.6883355258691 5.215813179260866"><g transform="matrix(1,0,0,1,1.6866943742626743,1.786306589630433)"><rect width="9.6883355258691" height="9.6883355258691" x="-1.6866943742626743" y="-4.02256776293455" fill="#ffffff"></rect><g transform="matrix(1,0,0,1,0,0)"><g clip-path="url(#SvgjsClipPath1001)"><path d=" M 0.1460897722942076 -1.1996122153677593 L 6.168857005049543 -1.1996122153677593 C 6.8570534457230945 -1.1996122153677593 7.414946777343751 -0.6417188837471037 7.414946777343751 0.04647755692644817 L 7.414946777343751 0.669522443073552 C 7.414946777343751 1.3577188837471041 6.8570534457230945 1.9156122153677595 6.168857005049543 1.9156122153677595 L 0.1460897722942076 1.9156122153677595 C -0.5421066683793442 1.9156122153677595 -1.0999999999999996 1.3577188837471041 -1.0999999999999996 0.669522443073552 L -1.0999999999999996 0.04647755692644817 C -1.0999999999999996 -0.6417188837471037 -0.5421066683793442 -1.1996122153677593 0.1460897722942076 -1.1996122153677593 Z" fill="#c84449" transform="matrix(1,0,0,1,0,0)" fill-rule="nonzero"></path></g></g><g transform="matrix(1,0,0,1,0,0)"><path d=" M 0.534 0.01100000000000001 L 0.534 0.16699999999999993 L 0.252 0.16699999999999993 L 0.252 0.291 L 0.46 0.291 L 0.46 0.43999999999999995 L 0.252 0.43999999999999995 L 0.252 0.716 L 0.056 0.716 L 0.056 0.01100000000000001 L 0.534 0.01100000000000001 M 0.77097412109375 0.6765 Q 0.68797412109375 0.63 0.63947412109375 0.5475 Q 0.59097412109375 0.46499999999999997 0.59097412109375 0.361 Q 0.59097412109375 0.25699999999999995 0.63947412109375 0.1745 Q 0.68797412109375 0.09199999999999997 0.77097412109375 0.04599999999999993 Q 0.8539741210937499 0 0.95297412109375 0 Q 1.05297412109375 0 1.13547412109375 0.04599999999999993 Q 1.21797412109375 0.09199999999999997 1.26597412109375 0.1745 Q 1.3139741210937501 0.25699999999999995 1.3139741210937501 0.361 Q 1.3139741210937501 0.46499999999999997 1.26597412109375 0.5475 Q 1.21797412109375 0.63 1.13497412109375 0.6765 Q 1.05197412109375 0.723 0.95297412109375 0.723 Q 0.8539741210937499 0.723 0.77097412109375 0.6765 M 1.07147412109375 0.492 Q 1.11497412109375 0.44299999999999995 1.11497412109375 0.361 Q 1.11497412109375 0.27699999999999997 1.07147412109375 0.22849999999999998 Q 1.02797412109375 0.17999999999999994 0.95297412109375 0.17999999999999994 Q 0.8769741210937501 0.17999999999999994 0.83397412109375 0.22849999999999998 Q 0.79097412109375 0.27699999999999997 0.79097412109375 0.361 Q 0.79097412109375 0.44399999999999995 0.83397412109375 0.49249999999999994 Q 0.8769741210937501 0.5409999999999999 0.95297412109375 0.5409999999999999 Q 1.02797412109375 0.5409999999999999 1.07147412109375 0.492 M 1.55596142578125 0.6765 Q 1.47296142578125 0.63 1.42446142578125 0.5475 Q 1.37596142578125 0.46499999999999997 1.37596142578125 0.361 Q 1.37596142578125 0.25699999999999995 1.42446142578125 0.1745 Q 1.47296142578125 0.09199999999999997 1.55596142578125 0.04599999999999993 Q 1.63896142578125 0 1.7379614257812501 0 Q 1.83796142578125 0 1.92046142578125 0.04599999999999993 Q 2.0029614257812502 0.09199999999999997 2.05096142578125 0.1745 Q 2.09896142578125 0.25699999999999995 2.09896142578125 0.361 Q 2.09896142578125 0.46499999999999997 2.05096142578125 0.5475 Q 2.0029614257812502 0.63 1.91996142578125 0.6765 Q 1.8369614257812499 0.723 1.7379614257812501 0.723 Q 1.63896142578125 0.723 1.55596142578125 0.6765 M 1.85646142578125 0.492 Q 1.89996142578125 0.44299999999999995 1.89996142578125 0.361 Q 1.89996142578125 0.27699999999999997 1.85646142578125 0.22849999999999998 Q 1.81296142578125 0.17999999999999994 1.7379614257812501 0.17999999999999994 Q 1.66196142578125 0.17999999999999994 1.61896142578125 0.22849999999999998 Q 1.57596142578125 0.27699999999999997 1.57596142578125 0.361 Q 1.57596142578125 0.44399999999999995 1.61896142578125 0.49249999999999994 Q 1.66196142578125 0.5409999999999999 1.7379614257812501 0.5409999999999999 Q 1.81296142578125 0.5409999999999999 1.85646142578125 0.492 M 2.7159487304687495 0.01100000000000001 L 2.7159487304687495 0.16699999999999993 L 2.52794873046875 0.16699999999999993 L 2.52794873046875 0.716 L 2.3319487304687496 0.716 L 2.3319487304687496 0.16699999999999993 L 2.1459487304687497 0.16699999999999993 L 2.1459487304687497 0.01100000000000001 L 2.7159487304687495 0.01100000000000001 M 3.31445263671875 0.3625 Q 3.2849526367187503 0.415 3.22545263671875 0.44649999999999995 Q 3.16595263671875 0.478 3.07995263671875 0.478 L 2.9829526367187498 0.478 L 2.9829526367187498 0.716 L 2.78695263671875 0.716 L 2.78695263671875 0.01100000000000001 L 3.07995263671875 0.01100000000000001 Q 3.16495263671875 0.01100000000000001 3.22445263671875 0.040999999999999925 Q 3.28395263671875 0.07099999999999995 3.31395263671875 0.124 Q 3.34395263671875 0.17699999999999994 3.34395263671875 0.24599999999999994 Q 3.34395263671875 0.30999999999999994 3.31445263671875 0.3625 M 3.1439526367187502 0.24599999999999994 Q 3.1439526367187502 0.16899999999999993 3.06095263671875 0.16899999999999993 L 2.9829526367187498 0.16899999999999993 L 2.9829526367187498 0.32199999999999995 L 3.06095263671875 0.32199999999999995 Q 3.1439526367187502 0.32199999999999995 3.1439526367187502 0.24599999999999994 M 3.7779389648437505 0.716 L 3.6379389648437503 0.45599999999999996 L 3.61693896484375 0.45599999999999996 L 3.61693896484375 0.716 L 3.4209389648437503 0.716 L 3.4209389648437503 0.01100000000000001 L 3.7299389648437504 0.01100000000000001 Q 3.8149389648437504 0.01100000000000001 3.87393896484375 0.04049999999999998 Q 3.9329389648437503 0.06999999999999995 3.96293896484375 0.12149999999999994 Q 3.9929389648437503 0.17299999999999993 3.9929389648437503 0.23699999999999993 Q 3.9929389648437503 0.30899999999999994 3.95343896484375 0.3635 Q 3.91393896484375 0.418 3.83793896484375 0.44099999999999995 L 3.9969389648437503 0.716 L 3.7779389648437505 0.716 M 3.61693896484375 0.32199999999999995 L 3.7139389648437504 0.32199999999999995 Q 3.7539389648437504 0.32199999999999995 3.77393896484375 0.30299999999999994 Q 3.79393896484375 0.284 3.79393896484375 0.24799999999999994 Q 3.79393896484375 0.21399999999999997 3.7734389648437503 0.1945 Q 3.75293896484375 0.17499999999999993 3.7139389648437504 0.17499999999999993 L 3.61693896484375 0.17499999999999993 L 3.61693896484375 0.32199999999999995 M 4.27594970703125 0.01100000000000001 L 4.27594970703125 0.716 L 4.0799497070312505 0.716 L 4.0799497070312505 0.01100000000000001 L 4.27594970703125 0.01100000000000001 M 5.03893310546875 0.716 L 4.8429331054687506 0.716 L 4.58193310546875 0.32199999999999995 L 4.58193310546875 0.716 L 4.385933105468751 0.716 L 4.385933105468751 0.01100000000000001 L 4.58193310546875 0.01100000000000001 L 4.8429331054687506 0.41 L 4.8429331054687506 0.01100000000000001 L 5.03893310546875 0.01100000000000001 L 5.03893310546875 0.716 M 5.679947753906251 0.01100000000000001 L 5.679947753906251 0.16699999999999993 L 5.491947753906251 0.16699999999999993 L 5.491947753906251 0.716 L 5.295947753906251 0.716 L 5.295947753906251 0.16699999999999993 L 5.109947753906251 0.16699999999999993 L 5.109947753906251 0.01100000000000001 L 5.679947753906251 0.01100000000000001 M 5.814951660156251 0.6645 Q 5.7359516601562515 0.606 5.729951660156251 0.497 L 5.938951660156251 0.497 Q 5.941951660156251 0.534 5.960951660156251 0.5509999999999999 Q 5.979951660156251 0.568 6.0099516601562515 0.568 Q 6.036951660156251 0.568 6.054451660156251 0.5545 Q 6.071951660156251 0.5409999999999999 6.071951660156251 0.5169999999999999 Q 6.071951660156251 0.486 6.042951660156251 0.469 Q 6.013951660156251 0.45199999999999996 5.948951660156251 0.43099999999999994 Q 5.879951660156251 0.408 5.837451660156251 0.38649999999999995 Q 5.794951660156251 0.36499999999999994 5.763451660156251 0.32349999999999995 Q 5.731951660156251 0.282 5.731951660156251 0.21499999999999997 Q 5.731951660156251 0.1469999999999999 5.765951660156251 0.09849999999999992 Q 5.7999516601562515 0.04999999999999993 5.859951660156251 0.02499999999999991 Q 5.919951660156251 0 5.995951660156251 0 Q 6.1189516601562515 0 6.192451660156251 0.057499999999999996 Q 6.265951660156251 0.11499999999999999 6.270951660156252 0.21899999999999997 L 6.057951660156251 0.21899999999999997 Q 6.056951660156251 0.18699999999999994 6.038451660156251 0.17099999999999993 Q 6.019951660156251 0.15499999999999992 5.990951660156251 0.15499999999999992 Q 5.968951660156251 0.15499999999999992 5.954951660156251 0.16799999999999993 Q 5.9409516601562515 0.18099999999999994 5.9409516601562515 0.20499999999999996 Q 5.9409516601562515 0.22499999999999998 5.956451660156251 0.23949999999999994 Q 5.971951660156251 0.25399999999999995 5.994951660156251 0.26449999999999996 Q 6.0179516601562515 0.27499999999999997 6.062951660156251 0.291 Q 6.129951660156251 0.31399999999999995 6.1734516601562515 0.33649999999999997 Q 6.216951660156251 0.359 6.248451660156251 0.39949999999999997 Q 6.279951660156251 0.43999999999999995 6.279951660156251 0.502 Q 6.279951660156251 0.565 6.248451660156251 0.615 Q 6.216951660156251 0.6649999999999999 6.1574516601562514 0.694 Q 6.097951660156252 0.723 6.016951660156251 0.723 Q 5.893951660156251 0.723 5.814951660156251 0.6645" fill="#ffffff" fill-rule="nonzero"></path></g><g transform="matrix(1,0,0,1,0,0)"><path d=" M 1.4477799804687506 2.4216122153677597 L 1.4477799804687506 2.8428122153677595 L 1.3451799804687505 2.8428122153677595 L 1.3451799804687505 2.4216122153677597 L 1.4477799804687506 2.4216122153677597 M 1.8989697265625005 2.8428122153677595 L 1.7963697265625005 2.8428122153677595 L 1.6247697265625005 2.5830122153677597 L 1.6247697265625005 2.8428122153677595 L 1.5221697265625005 2.8428122153677595 L 1.5221697265625005 2.4216122153677597 L 1.6247697265625005 2.4216122153677597 L 1.7963697265625005 2.6826122153677594 L 1.7963697265625005 2.4216122153677597 L 1.8989697265625005 2.4216122153677597 L 1.8989697265625005 2.8428122153677595 M 2.4035632812500003 2.4216122153677597 L 2.4035632812500003 2.5038122153677596 L 2.2919632812500006 2.5038122153677596 L 2.2919632812500006 2.8428122153677595 L 2.1893632812500003 2.8428122153677595 L 2.1893632812500003 2.5038122153677596 L 2.0777632812500006 2.5038122153677596 L 2.0777632812500006 2.4216122153677597 L 2.4035632812500003 2.4216122153677597 M 2.8199653320312508 2.4216122153677597 L 2.8199653320312508 2.8428122153677595 L 2.7173653320312505 2.8428122153677595 L 2.7173653320312505 2.6694122153677595 L 2.557765332031251 2.6694122153677595 L 2.557765332031251 2.8428122153677595 L 2.4551653320312505 2.8428122153677595 L 2.4551653320312505 2.4216122153677597 L 2.557765332031251 2.4216122153677597 L 2.557765332031251 2.5866122153677598 L 2.7173653320312505 2.5866122153677598 L 2.7173653320312505 2.4216122153677597 L 2.8199653320312508 2.4216122153677597 M 2.996376171875001 2.5038122153677596 L 2.996376171875001 2.5890122153677595 L 3.133776171875001 2.5890122153677595 L 3.133776171875001 2.6682122153677597 L 2.996376171875001 2.6682122153677597 L 2.996376171875001 2.7606122153677597 L 3.151776171875001 2.7606122153677597 L 3.151776171875001 2.8428122153677595 L 2.893776171875001 2.8428122153677595 L 2.893776171875001 2.4216122153677597 L 3.151776171875001 2.4216122153677597 L 3.151776171875001 2.5038122153677596 L 2.996376171875001 2.5038122153677596 M 3.415170605468751 2.8320122153677594 Q 3.378570605468751 2.8170122153677597 3.356670605468751 2.7876122153677594 Q 3.3347706054687514 2.7582122153677595 3.333570605468751 2.7168122153677596 L 3.442770605468751 2.7168122153677596 Q 3.445170605468751 2.7402122153677597 3.458970605468751 2.7525122153677595 Q 3.4727706054687513 2.7648122153677597 3.494970605468751 2.7648122153677597 Q 3.517770605468751 2.7648122153677597 3.530970605468751 2.7543122153677597 Q 3.544170605468751 2.7438122153677593 3.544170605468751 2.7252122153677596 Q 3.544170605468751 2.7096122153677595 3.533670605468751 2.6994122153677593 Q 3.523170605468751 2.6892122153677596 3.507870605468751 2.6826122153677594 Q 3.4925706054687513 2.6760122153677597 3.4643706054687513 2.6676122153677597 Q 3.4235706054687514 2.6550122153677593 3.397770605468751 2.6424122153677594 Q 3.3719706054687513 2.6298122153677594 3.353370605468751 2.6052122153677595 Q 3.3347706054687514 2.5806122153677595 3.3347706054687514 2.5410122153677595 Q 3.3347706054687514 2.4822122153677597 3.377370605468751 2.4489122153677596 Q 3.4199706054687513 2.4156122153677595 3.4883706054687513 2.4156122153677595 Q 3.557970605468751 2.4156122153677595 3.600570605468751 2.4489122153677596 Q 3.643170605468751 2.4822122153677597 3.6461706054687513 2.5416122153677594 L 3.535170605468751 2.5416122153677594 Q 3.533970605468751 2.5212122153677594 3.520170605468751 2.5095122153677596 Q 3.506370605468751 2.4978122153677598 3.4847706054687513 2.4978122153677598 Q 3.466170605468751 2.4978122153677598 3.454770605468751 2.50771221536776 Q 3.443370605468751 2.5176122153677594 3.443370605468751 2.5362122153677595 Q 3.443370605468751 2.5566122153677595 3.462570605468751 2.5680122153677596 Q 3.481770605468751 2.5794122153677597 3.522570605468751 2.5926122153677595 Q 3.563370605468751 2.6064122153677594 3.588870605468751 2.6190122153677597 Q 3.614370605468751 2.6316122153677597 3.632970605468751 2.6556122153677597 Q 3.651570605468751 2.6796122153677597 3.651570605468751 2.7174122153677596 Q 3.651570605468751 2.7534122153677596 3.633270605468751 2.7828122153677595 Q 3.614970605468751 2.8122122153677593 3.580170605468751 2.8296122153677596 Q 3.5453706054687513 2.8470122153677595 3.497970605468751 2.8470122153677595 Q 3.4517706054687514 2.8470122153677595 3.415170605468751 2.8320122153677594 M 3.976764746093751 2.7684122153677597 L 3.819564746093751 2.7684122153677597 L 3.794364746093751 2.8428122153677595 L 3.686964746093751 2.8428122153677595 L 3.839364746093751 2.4216122153677597 L 3.9581647460937512 2.4216122153677597 L 4.110564746093751 2.8428122153677595 L 4.001964746093751 2.8428122153677595 L 3.976764746093751 2.7684122153677597 M 3.950364746093751 2.6892122153677596 L 3.898164746093751 2.5350122153677597 L 3.846564746093751 2.6892122153677596 L 3.950364746093751 2.6892122153677596 M 4.533564453125001 2.8428122153677595 L 4.430964453125001 2.8428122153677595 L 4.259364453125001 2.5830122153677597 L 4.259364453125001 2.8428122153677595 L 4.156764453125001 2.8428122153677595 L 4.156764453125001 2.4216122153677597 L 4.259364453125001 2.4216122153677597 L 4.430964453125001 2.6826122153677594 L 4.430964453125001 2.4216122153677597 L 4.533564453125001 2.4216122153677597 L 4.533564453125001 2.8428122153677595 M 4.882172949218751 2.4480122153677595 Q 4.931972949218752 2.4744122153677597 4.959272949218751 2.5221122153677595 Q 4.986572949218751 2.5698122153677594 4.986572949218751 2.6322122153677596 Q 4.986572949218751 2.6940122153677595 4.959272949218751 2.7420122153677595 Q 4.931972949218752 2.7900122153677596 4.881872949218751 2.8164122153677593 Q 4.831772949218752 2.8428122153677595 4.765772949218752 2.8428122153677595 L 4.607972949218752 2.8428122153677595 L 4.607972949218752 2.4216122153677597 L 4.765772949218752 2.4216122153677597 Q 4.832372949218751 2.4216122153677597 4.882172949218751 2.4480122153677595 M 4.849772949218751 2.7222122153677595 Q 4.882172949218751 2.6904122153677594 4.882172949218751 2.6322122153677596 Q 4.882172949218751 2.5740122153677594 4.849772949218751 2.5416122153677594 Q 4.817372949218751 2.5092122153677594 4.759172949218751 2.5092122153677594 L 4.710572949218752 2.5092122153677594 L 4.710572949218752 2.7540122153677595 L 4.759172949218751 2.7540122153677595 Q 4.817372949218751 2.7540122153677595 4.849772949218751 2.7222122153677595" fill="#c84449" fill-rule="nonzero"></path></g></g><defs><clipPath id="SvgjsClipPath1001"><path d=" M -1.0999999999999996 -1.1996122153677593 h 8.51494677734375 v 3.115224430735519 h -8.51494677734375 Z"></path></clipPath></defs></svg>